<?xml version="1.0" encoding="UTF-8"?><svg id="Capa_2" xmlns="http://www.w3.org/2000/svg" xmlns:xlink="http://www.w3.org/1999/xlink" viewBox="0 0 24 24"><defs><linearGradient id="Degradado_sin_nombre_324" x1="6.65" y1="9.88" x2="21.6" y2="9.88" gradientTransform="matrix(1, 0, 0, 1, 0, 0)" gradientUnits="userSpaceOnUse"><stop offset="0" stop-color="#fff"/><stop offset=".2" stop-color="#fff9f8"/><stop offset=".44" stop-color="#ffede9"/></linearGradient><linearGradient id="Degradado_sin_nombre_221" x1="10" y1="19.59" x2="13.21" y2="16.71" gradientTransform="translate(-4.31 -1.44)" gradientUnits="userSpaceOnUse"><stop offset="0" stop-color="#ff7271"/><stop offset=".05" stop-color="#ff7f72"/><stop offset=".16" stop-color="#ff9874"/><stop offset=".29" stop-color="#ffaa76"/><stop offset=".43" stop-color="#ffb878"/><stop offset=".62" stop-color="#ffbf78"/><stop offset="1" stop-color="#ffc279"/></linearGradient><linearGradient id="Degradado_sin_nombre_217" x1="11.55" y1="19.94" x2="11.68" y2="25.77" gradientTransform="translate(26.62 7.95) rotate(90)" gradientUnits="userSpaceOnUse"><stop offset="0" stop-color="#ff7271"/><stop offset=".23" stop-color="#f86c6f"/><stop offset=".57" stop-color="#e55d6a"/><stop offset=".96" stop-color="#c64461"/><stop offset="1" stop-color="#c34261"/></linearGradient><linearGradient id="Degradado_sin_nombre_222" x1="4.46" y1="13.27" x2="26.46" y2="-1.5" gradientTransform="translate(11.92 -4.33) rotate(45)" gradientUnits="userSpaceOnUse"><stop offset="0" stop-color="#ff7271"/><stop offset=".22" stop-color="#ff8b73"/><stop offset=".54" stop-color="#ffa976"/><stop offset=".81" stop-color="#ffbb78"/><stop offset="1" stop-color="#ffc279"/></linearGradient></defs><g id="Capa_1-2"><g><rect width="24" height="24" fill="none"/><g><circle cx="14.13" cy="9.88" r="7.48" fill="url(#Degradado_sin_nombre_324)"/><rect x="6.26" y="14.63" width="2.06" height="4.16" transform="translate(13.95 -.26) rotate(45)" fill="url(#Degradado_sin_nombre_221)"/><rect x="1.68" y="17.44" width="5.55" height="4.22" rx="1.29" ry="1.29" transform="translate(-12.52 8.87) rotate(-45)" fill="url(#Degradado_sin_nombre_217)"/><path d="M21.19,5.43c-.32-.51-.71-1.01-1.16-1.45-3.26-3.26-8.54-3.26-11.8,0s-3.25,8.54,0,11.8c2.68,2.68,6.73,3.15,9.9,1.41,.68-.36,1.31-.84,1.89-1.41,2.81-2.81,3.2-7.12,1.16-10.34ZM9.44,14.56c-2.59-2.59-2.58-6.79,0-9.37s6.78-2.59,9.37,0c.3,.3,.57,.62,.79,.97,1.76,2.57,1.49,6.11-.8,8.4-.51,.51-1.09,.93-1.7,1.23-2.48,1.25-5.59,.84-7.66-1.22Z" fill="url(#Degradado_sin_nombre_222)"/><circle cx="12.83" cy="6.5" r="1.89" fill="#fff"/><circle cx="16.48" cy="10.15" r=".95" fill="#fff"/></g></g></g></svg>