<?xml version="1.0" encoding="UTF-8"?>
<svg width="13px" height="16px" viewBox="0 0 13 16" version="1.1" xmlns="http://www.w3.org/2000/svg" xmlns:xlink="http://www.w3.org/1999/xlink">
    <title>Group 2</title>
    <defs>
        <linearGradient x1="49.538966%" y1="44.7024673%" x2="43.2858608%" y2="-14.8584906%" id="linearGradient-1">
            <stop stop-color="#FFC279" offset="0%"></stop>
            <stop stop-color="#FFB077" offset="27%"></stop>
            <stop stop-color="#FF8472" offset="80%"></stop>
            <stop stop-color="#FF7271" offset="100%"></stop>
        </linearGradient>
        <linearGradient x1="12.2473246%" y1="41.3202902%" x2="101.593341%" y2="57.2916334%" id="linearGradient-2">
            <stop stop-color="#FFC279" offset="0%"></stop>
            <stop stop-color="#FFBD78" offset="21%"></stop>
            <stop stop-color="#FFAF77" offset="44%"></stop>
            <stop stop-color="#FF9974" offset="69%"></stop>
            <stop stop-color="#FF7A71" offset="94%"></stop>
            <stop stop-color="#FF7271" offset="100%"></stop>
        </linearGradient>
        <linearGradient x1="48.6134041%" y1="45.8157639%" x2="52.8997574%" y2="10.8822575%" id="linearGradient-3">
            <stop stop-color="#FFC279" offset="0%"></stop>
            <stop stop-color="#FFB077" offset="27%"></stop>
            <stop stop-color="#FF8472" offset="80%"></stop>
            <stop stop-color="#FF7271" offset="100%"></stop>
        </linearGradient>
        <linearGradient x1="-0.0133404482%" y1="49.9855908%" x2="100%" y2="49.9855908%" id="linearGradient-4">
            <stop stop-color="#FFC279" offset="0%"></stop>
            <stop stop-color="#FFB077" offset="27%"></stop>
            <stop stop-color="#FF8472" offset="80%"></stop>
            <stop stop-color="#FF7271" offset="100%"></stop>
        </linearGradient>
        <linearGradient x1="50.6683694%" y1="51.845802%" x2="48.6187031%" y2="12.2835675%" id="linearGradient-5">
            <stop stop-color="#FFC279" offset="0%"></stop>
            <stop stop-color="#FFB077" offset="27%"></stop>
            <stop stop-color="#FF8472" offset="80%"></stop>
            <stop stop-color="#FF7271" offset="100%"></stop>
        </linearGradient>
    </defs>
    <g id="Page-1" stroke="none" stroke-width="1" fill="none" fill-rule="evenodd">
        <g id="9-copy" transform="translate(-615.000000, -224.000000)" fill-rule="nonzero">
            <g id="Group-2" transform="translate(615.000000, 224.000000)">
                <path d="M11.6530345,10.7849749 C11.6530345,10.8401853 11.6530345,10.8953958 11.6530345,10.9490289 C11.6080839,8.85576259 10.3525695,7.06536528 8.5715989,6.27506655 C8.05389293,5.12984324 7.34398474,4.09346347 6.48527483,3.20851819 C6.81542864,2.86779059 7.16883272,2.54756975 7.54238703,2.25416543 C10.0441159,4.22596865 11.6545845,7.31302376 11.6545845,10.7849749 L11.6530345,10.7849749 Z" id="Path" fill="url(#linearGradient-1)"></path>
                <path d="M6.51627519,1.53958395 C6.14892095,1.76358079 5.79551687,2.01123928 5.45916299,2.27940452 C3.92309527,1.05688652 2.04757363,0.258700582 0,0.0520556049 C0.347204006,0.0173518683 0.700608084,0 1.0571122,0 C3.05353523,0 4.9228568,0.561569555 6.51782521,1.53958395 L6.51627519,1.53958395 Z" id="Path" fill="url(#linearGradient-2)"></path>
                <path d="M11.6514844,10.9490289 C11.6483844,11.2045746 11.6359843,11.4585428 11.614284,11.7109336 C11.3740312,13.7063985 10.0270657,15.354826 8.21819483,16 C9.05985454,14.4541063 9.53881006,12.6763285 9.53881006,10.7833974 C9.53881006,9.17282855 9.19160606,7.64586414 8.57004889,6.27348911 C10.3525695,7.06536528 11.6065339,8.85418515 11.6514844,10.9474514 L11.6514844,10.9490289 Z" id="Path" fill="url(#linearGradient-3)"></path>
                <path d="M13,0.0504781623 C10.9555264,0.249235926 9.08000477,1.0411121 7.54083701,2.25416543 C7.1672827,2.54756975 6.81387862,2.86621315 6.48372481,3.20851819 C5.61416478,4.10450557 4.89805652,5.15350488 4.37880052,6.31450261 C2.64278049,7.12373065 1.42601645,8.89046633 1.38106594,10.9506063 C1.38106594,10.8953958 1.38106594,10.8401853 1.38106594,10.7865523 C1.38106594,7.33037563 2.97758436,4.25594006 5.46071301,2.2825594 C5.79706689,2.01439416 6.15047097,1.76673568 6.51782521,1.54273883 C8.11279361,0.564724441 9.98056516,0.00315488514 11.9769882,0.00315488514 C12.3226422,0.00315488514 12.6636461,0.0205067534 13,0.0536330474 L13,0.0504781623 Z" id="Path" fill="url(#linearGradient-4)"></path>
                <path d="M4.73065458,15.9700286 C2.9636342,15.3043478 1.65386908,13.6764271 1.41671635,11.7109336 C1.3950161,11.4585428 1.38261595,11.2045746 1.37951592,10.9490289 C1.42446644,8.88888889 2.64123048,7.12215321 4.37725051,6.31292517 C3.76654346,7.67583555 3.42553953,9.18860298 3.42553953,10.7833974 C3.42553953,12.663709 3.89829498,14.4304446 4.72910457,15.9700286 L4.73065458,15.9700286 Z" id="Path" fill="url(#linearGradient-5)"></path>
            </g>
        </g>
    </g>
</svg>