<?xml version="1.0" encoding="UTF-8"?><svg id="Capa_2" xmlns="http://www.w3.org/2000/svg" xmlns:xlink="http://www.w3.org/1999/xlink" viewBox="0 0 24 24"><defs><linearGradient id="Degradado_sin_nombre_217" x1="4.98" y1="6.83" x2="20.04" y2="21.18" gradientTransform="matrix(1, 0, 0, 1, 0, 0)" gradientUnits="userSpaceOnUse"><stop offset="0" stop-color="#ff7271"/><stop offset=".23" stop-color="#f86c6f"/><stop offset=".57" stop-color="#e55d6a"/><stop offset=".96" stop-color="#c64461"/><stop offset="1" stop-color="#c34261"/></linearGradient><linearGradient id="Degradado_sin_nombre_221" x1="14.59" y1="10.41" x2="23.59" y2="2.33" gradientTransform="matrix(1, 0, 0, 1, 0, 0)" gradientUnits="userSpaceOnUse"><stop offset="0" stop-color="#ff7271"/><stop offset=".05" stop-color="#ff7f72"/><stop offset=".16" stop-color="#ff9874"/><stop offset=".29" stop-color="#ffaa76"/><stop offset=".43" stop-color="#ffb878"/><stop offset=".62" stop-color="#ffbf78"/><stop offset="1" stop-color="#ffc279"/></linearGradient></defs><g id="Capa_1-2"><g><g><path d="M20.85,13.24l-8.91,9.35L1.28,11.44c-1.64-2.19-1.64-5.2,0-7.39l.14-.19C3.61,.96,7.82,.56,10.51,3.02l1.44,1.32,8.91,8.91Z" fill="url(#Degradado_sin_nombre_217)"/><path d="M22.73,11.25l-1.96,2.06L11.85,4.41l2.11-1.67c1.14-.9,2.49-1.33,3.82-1.33,2.01,0,4,.98,5.18,2.82,1.4,2.16,1.3,4.97-.25,7.03Z" fill="url(#Degradado_sin_nombre_221)"/></g><rect width="24" height="24" fill="none"/></g></g></svg>