<?xml version="1.0" encoding="UTF-8"?><svg id="Capa_2" xmlns="http://www.w3.org/2000/svg" xmlns:xlink="http://www.w3.org/1999/xlink" viewBox="0 0 471.24 101.43"><defs><style>.cls-1{fill:#ffc279;}.cls-2{fill:url(#Degradado_sin_nombre_431);}.cls-3{fill:url(#Degradado_sin_nombre_430);}.cls-4{fill:url(#Degradado_sin_nombre_430-3);}.cls-5{fill:url(#Degradado_sin_nombre_430-4);}.cls-6{fill:url(#Degradado_sin_nombre_430-2);}</style><linearGradient id="Degradado_sin_nombre_430" x1="319.51" y1="38.93" x2="313.61" y2="6.1" gradientTransform="matrix(1, 0, 0, 1, 0, 0)" gradientUnits="userSpaceOnUse"><stop offset="0" stop-color="#ffc279"/><stop offset=".27" stop-color="#ffb077"/><stop offset=".8" stop-color="#ff8472"/><stop offset="1" stop-color="#ff7271"/></linearGradient><linearGradient id="Degradado_sin_nombre_431" x1="266.58" y1="-3.03" x2="304.15" y2="15.84" gradientTransform="matrix(1, 0, 0, 1, 0, 0)" gradientUnits="userSpaceOnUse"><stop offset="0" stop-color="#ffc279"/><stop offset=".21" stop-color="#ffbd78"/><stop offset=".44" stop-color="#ffaf77"/><stop offset=".69" stop-color="#ff9974"/><stop offset=".94" stop-color="#ff7a71"/><stop offset="1" stop-color="#ff7271"/></linearGradient><linearGradient id="Degradado_sin_nombre_430-2" x1="323.06" y1="68.02" x2="330.68" y2="46.48" xlink:href="#Degradado_sin_nombre_430"/><linearGradient id="Degradado_sin_nombre_430-3" x1="270.33" y1="34.71" x2="345.3" y2="34.71" xlink:href="#Degradado_sin_nombre_430"/><linearGradient id="Degradado_sin_nombre_430-4" x1="282.34" y1="71.76" x2="278.66" y2="47.54" xlink:href="#Degradado_sin_nombre_430"/></defs><g id="Capa_1-2"><g><g><path class="cls-1" d="M34.42,45.01c0,2.83-.8,5.21-2.4,7.13-1.6,1.92-3.84,3.25-6.71,3.97l7.79,15.97h5.39v5.51h-9.9l-9.76-20.57h-6.18v15.06h5.62v5.51H0v-5.51H5.98V38.94H0v-5.51H18.34c5.68,0,9.79,.93,12.3,2.78,2.52,1.86,3.78,4.79,3.78,8.79Zm-6.88-.12c0-2.05-.64-3.55-1.93-4.51-1.29-.96-3.33-1.44-6.12-1.44h-6.83v12.54h6.42c2.87,0,5-.5,6.39-1.49,1.39-1,2.08-2.7,2.08-5.1Z"/><path class="cls-1" d="M72.6,62.24c0,2.99-.71,5.72-2.14,8.2-1.43,2.48-3.37,4.44-5.83,5.89s-5.19,2.17-8.17,2.17-5.87-.72-8.35-2.17c-2.48-1.45-4.41-3.41-5.79-5.89-1.38-2.48-2.07-5.21-2.07-8.2s.69-5.92,2.07-8.38,3.3-4.39,5.76-5.79c2.46-1.4,5.25-2.09,8.38-2.09s5.77,.74,8.23,2.21c2.46,1.48,4.39,3.45,5.8,5.93,1.41,2.48,2.11,5.19,2.11,8.12Zm-16.14,10.37c1.8,0,3.45-.47,4.95-1.41,1.5-.94,2.68-2.2,3.52-3.78,.84-1.58,1.26-3.31,1.26-5.19s-.42-3.54-1.26-5.13c-.84-1.58-2.01-2.86-3.52-3.82-1.5-.97-3.17-1.45-5.01-1.45s-3.45,.47-4.95,1.42c-1.5,.95-2.69,2.22-3.54,3.82-.86,1.6-1.29,3.32-1.29,5.16s.43,3.56,1.29,5.16c.86,1.6,2.05,2.87,3.57,3.81s3.18,1.41,4.98,1.41Z"/><path class="cls-1" d="M103.39,57.66v14.53h5.16v5.39h-10.49v-3.78c-2.93,2.87-6.19,4.31-9.79,4.31-1.89,0-3.63-.44-5.2-1.32-1.57-.88-2.83-2.06-3.78-3.53-.95-1.47-1.42-3.11-1.42-4.91,0-1.93,.52-3.66,1.57-5.17,1.04-1.51,2.46-2.68,4.23-3.5,1.78-.82,3.56-1.23,5.36-1.23,3.01,0,5.81,.88,8.41,2.64v-3.31c0-2.4-.51-4.12-1.52-5.16-1.02-1.04-2.69-1.55-5.01-1.55-1.64,0-3.01,.3-4.12,.89-1.1,.6-2.02,1.5-2.74,2.71l-5.8-1.44c1.31-2.44,3.08-4.26,5.3-5.46s4.87-1.8,7.94-1.8c4.12,0,7.13,.94,9.04,2.81s2.86,4.83,2.86,8.88Zm-14.3,15.79c2.97,0,5.75-1.24,8.35-3.72v-3.6c-2.64-2.05-5.27-3.08-7.91-3.08-1.6,0-2.98,.5-4.15,1.51-1.16,1.01-1.74,2.27-1.74,3.79s.51,2.68,1.52,3.65c1.02,.97,2.32,1.45,3.93,1.45Z"/><path class="cls-1" d="M130.63,48.11v-1.32h5.27v10.22h-5.27v-1.88c-1.76-2.52-4.16-3.78-7.21-3.78-1.6,0-2.91,.35-3.93,1.05-1.02,.7-1.52,1.61-1.52,2.72,0,1,.39,1.78,1.16,2.34,.77,.57,2.5,1.06,5.2,1.49l4.07,.79c6.07,1.11,9.11,4.09,9.11,8.94,0,2.83-1.1,5.11-3.3,6.83-2.2,1.72-5.11,2.58-8.75,2.58-1.45,0-2.87-.21-4.26-.63-1.4-.42-2.56-.94-3.5-1.57v1.67h-5.39v-10.55h5.39v1.05c.29,1.48,1.12,2.68,2.48,3.57,1.36,.9,2.93,1.35,4.73,1.35,1.97,0,3.53-.35,4.66-1.04,1.13-.69,1.7-1.72,1.7-3.09,0-1-.45-1.74-1.35-2.24-.9-.5-2.71-1.01-5.42-1.54l-3.13-.67c-3.11-.62-5.38-1.7-6.83-3.22-1.45-1.52-2.17-3.47-2.17-5.83,0-1.91,.53-3.55,1.6-4.91,1.06-1.36,2.43-2.38,4.09-3.06,1.66-.68,3.37-1.03,5.13-1.03,2.95,0,5.43,.58,7.44,1.73Z"/><path class="cls-1" d="M157.5,46.8v5.42h-5.62v16.14c0,1.68,.18,2.77,.54,3.27,.36,.5,.98,.75,1.86,.75,1.07,0,2.15-.19,3.22-.56v5.48c-1.88,.55-3.39,.82-4.54,.82-2.54,0-4.37-.64-5.48-1.92-1.11-1.28-1.67-3.47-1.67-6.58v-17.4h-4.01v-5.42h4.01v-4.66l6.06-5.54v10.2h5.62Z"/><path class="cls-1" d="M176.43,72.2v5.39h-15.56v-5.39h4.8v-19.98h-4.8v-5.42h10.87v25.4h4.69Zm-4.34-35.77c0,1-.36,1.86-1.08,2.58s-1.58,1.08-2.58,1.08-1.85-.36-2.55-1.08c-.7-.72-1.05-1.58-1.05-2.58s.35-1.86,1.05-2.58c.7-.72,1.55-1.08,2.55-1.08s1.9,.35,2.61,1.05,1.05,1.57,1.05,2.61Z"/><path class="cls-1" d="M209.36,56.87v15.32h5.16v5.39h-11.22v-20.33c0-1.93-.28-3.32-.83-4.16-.56-.84-1.47-1.26-2.74-1.26-2.7,0-5.72,1.33-9.08,3.98v16.38h5.3v5.39h-16.7v-5.39h5.42v-19.98h-5.42v-5.42h11.4v3.72c3.77-2.75,7.31-4.13,10.63-4.13,2.75,0,4.79,.85,6.11,2.55s1.98,4.35,1.98,7.94Z"/><path class="cls-1" d="M244.04,51.25v-4.45h11.57v5.42h-5.57v23.09c0,5.37-1.35,9.52-4.06,12.44-2.71,2.92-6.66,4.38-11.85,4.38-4.92,0-9.12-1.39-12.6-4.16l3.9-4.37c1.41,1.04,2.82,1.81,4.23,2.33,1.42,.52,2.96,.78,4.64,.78,3.05,0,5.43-.95,7.15-2.84,1.72-1.89,2.58-4.4,2.58-7.53v-2.87c-1.33,1.56-3.01,2.79-5.05,3.69s-4.08,1.35-6.11,1.35c-2.85,0-5.42-.72-7.69-2.17-2.28-1.45-4.05-3.36-5.33-5.76-1.28-2.39-1.92-5.01-1.92-7.87s.67-5.61,2.01-8.12c1.34-2.5,3.17-4.49,5.49-5.98,2.32-1.48,4.9-2.23,7.73-2.23,2.03,0,3.93,.4,5.7,1.2,1.77,.8,3.49,2.02,5.17,3.66Zm-10.02,21.83c1.91,0,3.64-.48,5.19-1.44,1.54-.96,2.74-2.25,3.6-3.87,.86-1.62,1.29-3.37,1.29-5.24,0-1.76-.43-3.45-1.29-5.07-.86-1.62-2.05-2.93-3.57-3.93s-3.22-1.49-5.1-1.49-3.51,.48-5.01,1.44c-1.5,.96-2.68,2.25-3.52,3.87-.84,1.62-1.26,3.37-1.26,5.24s.4,3.67,1.2,5.27c.8,1.6,1.94,2.87,3.41,3.81,1.47,.94,3.16,1.41,5.05,1.41Z"/></g><g><path class="cls-1" d="M375.82,38.77l11.95,33.31h4.92v5.51h-17.4v-5.51h5.77l-3.43-10.02h-16.03l-3.43,10.02h5.6v5.51h-17.52v-5.51h5.33l11.89-33.31h-5.3v-5.33h22.94v5.33h-5.3Zm-6.04,0h-.21l-6.24,18.11h12.54l-6.09-18.11Z"/><path class="cls-1" d="M428.76,45.01c0,2.83-.8,5.21-2.4,7.13-1.6,1.92-3.84,3.25-6.71,3.97l7.79,15.97h5.39v5.51h-9.9l-9.76-20.57h-6.18v15.06h5.62v5.51h-18.28v-5.51h5.98V38.94h-5.98v-5.51h18.34c5.68,0,9.79,.93,12.3,2.78,2.52,1.86,3.78,4.79,3.78,8.79Zm-6.88-.12c0-2.05-.64-3.55-1.93-4.51-1.29-.96-3.33-1.44-6.12-1.44h-6.83v12.54h6.42c2.87,0,5-.5,6.39-1.49s2.08-2.7,2.08-5.1Z"/><path class="cls-1" d="M465.79,49.58v-10.63h-9.11v33.13h5.74v5.51h-18.05v-5.51h5.62V38.94h-9.05v10.63h-5.45v-16.14h35.74v16.14h-5.45Z"/></g><path class="cls-3" d="M336.61,68.37c0,.35,0,.7,0,1.04-.29-13.27-8.39-24.62-19.88-29.63-3.34-7.26-7.92-13.83-13.46-19.44,2.13-2.16,4.41-4.19,6.82-6.05,16.14,12.5,26.53,32.07,26.53,54.08Z"/><path class="cls-2" d="M303.47,9.76c-2.37,1.42-4.65,2.99-6.82,4.69-9.91-7.75-22.01-12.81-35.22-14.12,2.24-.22,4.52-.33,6.82-.33,12.88,0,24.94,3.56,35.23,9.76Z"/><path class="cls-6" d="M336.6,69.41c-.02,1.62-.1,3.23-.24,4.83-1.55,12.65-10.24,23.1-21.91,27.19,5.43-9.8,8.52-21.07,8.52-33.07,0-10.21-2.24-19.89-6.25-28.59,11.5,5.02,19.59,16.36,19.88,29.63Z"/><path class="cls-4" d="M345.3,.32c-13.19,1.26-25.29,6.28-35.22,13.97-2.41,1.86-4.69,3.88-6.82,6.05-5.61,5.68-10.23,12.33-13.58,19.69-11.2,5.13-19.05,16.33-19.34,29.39,0-.35,0-.7,0-1.04,0-21.91,10.3-41.4,26.32-53.91,2.17-1.7,4.45-3.27,6.82-4.69,10.29-6.2,22.34-9.76,35.22-9.76,2.23,0,4.43,.11,6.6,.32Z"/><path class="cls-5" d="M291.95,101.24c-11.4-4.22-19.85-14.54-21.38-27-.14-1.6-.22-3.21-.24-4.83,.29-13.06,8.14-24.26,19.34-29.39-3.94,8.64-6.14,18.23-6.14,28.34,0,11.92,3.05,23.12,8.41,32.88Z"/></g></g></svg>